# Blender v2.79 (sub 0) OBJ File: 'zombie.blend'
# www.blender.org
mtllib arm_left.mtl
o arm.left_Cube.004
v 0.721404 4.805117 1.970829
v 0.811932 4.813013 -0.427458
v 0.720560 4.005124 1.968163
v 0.811088 4.013020 -0.430123
v 1.520834 4.804174 2.001002
v 1.611362 4.812069 -0.397284
v 1.519990 4.004181 1.998336
v 1.610519 4.012076 -0.399950
vt 0.812500 0.687500
vt 0.750000 0.500000
vt 0.812500 0.500000
vt 0.812500 0.687500
vt 0.875000 0.500000
vt 0.812500 0.500000
vt 0.625000 0.500000
vt 0.687500 0.687500
vt 0.687500 0.500000
vt 0.750000 0.687500
vt 0.750000 0.500000
vt 0.750000 0.750000
vt 0.812500 0.687500
vt 0.812500 0.750000
vt 0.750000 0.750000
vt 0.687500 0.687500
vt 0.750000 0.687500
vt 0.750000 0.687500
vt 0.875000 0.687500
vt 0.625000 0.687500
vt 0.750000 0.687500
vt 0.687500 0.750000
vn -0.9993 0.0012 -0.0377
vn -0.0011 -1.0000 -0.0033
vn 0.9993 -0.0012 0.0377
vn 0.0011 1.0000 0.0033
vn -0.0377 -0.0033 0.9993
vn 0.0377 0.0033 -0.9993
usemtl None
s off
f 2/1/1 3/2/1 1/3/1
f 4/4/2 7/5/2 3/6/2
f 7/7/3 6/8/3 5/9/3
f 5/9/4 2/10/4 1/11/4
f 7/12/5 1/13/5 3/14/5
f 8/15/6 2/16/6 6/17/6
f 2/1/1 4/18/1 3/2/1
f 4/4/2 8/19/2 7/5/2
f 7/7/3 8/20/3 6/8/3
f 5/9/4 6/8/4 2/10/4
f 7/12/5 5/21/5 1/13/5
f 8/15/6 4/22/6 2/16/6
