# Blender v2.79 (sub 0) OBJ File: 'drowned.blend'
# www.blender.org
mtllib head.mtl
o baby_drowned_head_Cube.025
v -0.983174 -2.066533 1.000000
v -0.983174 -0.066533 1.000000
v -0.983174 -2.066533 -1.000000
v -0.983174 -0.066533 -1.000000
v 1.016826 -2.066533 1.000000
v 1.016826 -0.066533 1.000000
v 1.016826 -2.066533 -1.000000
v 1.016826 -0.066533 -1.000000
vt 0.125000 0.875000
vt 0.000000 0.750000
vt 0.125000 0.750000
vt 0.500000 0.875000
vt 0.375000 0.750000
vt 0.500000 0.750000
vt 0.375000 0.875000
vt 0.250000 0.750000
vt 0.250000 0.875000
vt 0.250000 1.000000
vt 0.375000 0.875000
vt 0.375000 1.000000
vt 0.125000 1.000000
vt 0.250000 1.000000
vt 0.000000 0.875000
vt 0.250000 0.875000
vn -1.0000 0.0000 0.0000
vn 0.0000 0.0000 -1.0000
vn 1.0000 0.0000 0.0000
vn 0.0000 0.0000 1.0000
vn 0.0000 -1.0000 0.0000
vn 0.0000 1.0000 0.0000
usemtl None
s off
f 2/1/1 3/2/1 1/3/1
f 4/4/2 7/5/2 3/6/2
f 8/7/3 5/8/3 7/5/3
f 6/9/4 1/3/4 5/8/4
f 7/10/5 1/11/5 3/12/5
f 4/13/6 6/9/6 8/14/6
f 2/1/1 4/15/1 3/2/1
f 4/4/2 8/7/2 7/5/2
f 8/7/3 6/9/3 5/8/3
f 6/9/4 2/1/4 1/3/4
f 7/10/5 5/16/5 1/11/5
f 4/13/6 2/1/6 6/9/6
o baby_overlay_head.overlay.11_Cube.024
v -1.202542 -2.266533 1.200000
v -1.202542 0.133467 1.200000
v -1.202542 -2.266533 -1.200000
v -1.202542 0.133467 -1.200000
v 1.197458 -2.266533 1.200000
v 1.197458 0.133467 1.200000
v 1.197458 -2.266533 -1.200000
v 1.197458 0.133467 -1.200000
vt 0.125000 0.875000
vt 0.000000 0.750000
vt 0.125000 0.750000
vt 0.500000 0.875000
vt 0.375000 0.750000
vt 0.500000 0.750000
vt 0.375000 0.875000
vt 0.250000 0.750000
vt 0.250000 0.875000
vt 0.250000 1.000000
vt 0.375000 0.875000
vt 0.375000 1.000000
vt 0.125000 1.000000
vt 0.250000 1.000000
vt 0.000000 0.875000
vt 0.250000 0.875000
vn -1.0000 0.0000 0.0000
vn 0.0000 0.0000 -1.0000
vn 1.0000 0.0000 0.0000
vn 0.0000 0.0000 1.0000
vn 0.0000 -1.0000 0.0000
vn 0.0000 1.0000 0.0000
usemtl None_drowned_outer_layer.png
s off
f 10/17/7 11/18/7 9/19/7
f 12/20/8 15/21/8 11/22/8
f 16/23/9 13/24/9 15/21/9
f 14/25/10 9/19/10 13/24/10
f 15/26/11 9/27/11 11/28/11
f 12/29/12 14/25/12 16/30/12
f 10/17/7 12/31/7 11/18/7
f 12/20/8 16/23/8 15/21/8
f 16/23/9 14/25/9 13/24/9
f 14/25/10 10/17/10 9/19/10
f 15/26/11 13/32/11 9/27/11
f 12/29/12 10/17/12 14/25/12
